<svg width="54" height="54" viewBox="0 0 54 54" fill="none" xmlns="http://www.w3.org/2000/svg">
<path d="M27.0942 0.354004C41.7022 0.354004 53.543 12.1947 53.543 26.8028C53.543 41.4108 41.7022 53.2515 27.0942 53.2515C12.4879 53.2515 0.645462 41.4108 0.645462 26.8028C0.645462 12.1947 12.4862 0.354004 27.0942 0.354004ZM27.0942 49.9454C39.8756 49.9454 50.2369 39.5842 50.2369 26.8028C50.2369 14.0214 39.8756 3.6601 27.0942 3.6601C14.3128 3.6601 3.95156 14.0214 3.95156 26.8028C3.95156 39.5842 14.3128 49.9454 27.0942 49.9454ZM19.596 12.6923C20.2423 12.046 21.2887 12.046 21.9334 12.6923L34.5908 25.3497C34.9875 25.7464 35.1098 26.2886 35.0189 26.8028C35.1098 27.3152 34.9859 27.8591 34.5908 28.2558L21.9334 40.9132C21.287 41.5579 20.2407 41.5579 19.596 40.9132C18.9496 40.2668 18.9496 39.2204 19.596 38.5757L31.369 26.8028L19.5977 15.0314C18.9513 14.3851 18.9513 13.3387 19.596 12.6923Z" fill="black"/>
</svg>
