<svg width="55" height="56" viewBox="0 0 55 56" fill="none" xmlns="http://www.w3.org/2000/svg">
<g clip-path="url(#clip0)">
<path d="M27.3019 0.500488C12.2227 0.500488 0 12.7232 0 27.8024C0 42.8817 12.2227 55.1044 27.3019 55.1044C42.3794 55.1044 54.6039 42.8817 54.6039 27.8024C54.6039 12.7232 42.3812 0.500488 27.3019 0.500488ZM27.3019 51.6916C14.1082 51.6916 3.41274 40.9961 3.41274 27.8024C3.41274 14.6087 14.1082 3.91323 27.3019 3.91323C40.4956 3.91323 51.1911 14.6087 51.1911 27.8024C51.1911 40.9961 40.4956 51.6916 27.3019 51.6916ZM35.042 13.2368C34.3748 12.5696 33.2947 12.5696 32.6292 13.2368L19.5635 26.3025C19.154 26.712 19.0278 27.2717 19.1216 27.8024C19.0278 28.3314 19.1557 28.8928 19.5635 29.3023L32.6292 42.368C33.2965 43.0335 34.3765 43.0335 35.042 42.368C35.7092 41.7008 35.7092 40.6207 35.042 39.9552L22.8893 27.8024L35.0403 15.6514C35.7075 14.9842 35.7075 13.904 35.042 13.2368Z" fill="black"/>
</g>
<defs>
<clipPath id="clip0">
<rect width="54.6039" height="54.6039" fill="white" transform="translate(0 0.500488)"/>
</clipPath>
</defs>
</svg>
