<svg width="89" height="121" viewBox="0 0 89 121" fill="none" xmlns="http://www.w3.org/2000/svg">
<path d="M85.2917 14.0809H62.6649C60.9413 6.05761 53.4534 0 44.5 0C35.5466 0 28.0587 6.05761 26.3351 14.0809H3.70833C1.66034 14.0809 0 15.6571 0 17.6012V116.637C0 118.581 1.66034 120.157 3.70833 120.157H85.2917C87.3397 120.157 89 118.581 89 116.637V17.6012C89 15.6571 87.3397 14.0809 85.2917 14.0809ZM25.9583 24.6416C25.9583 22.7006 27.6219 21.1214 29.6667 21.1214C31.7147 21.1214 33.375 19.5453 33.375 17.6012C33.375 11.778 38.3657 7.04046 44.5 7.04046C50.6343 7.04046 55.625 11.778 55.625 17.6012C55.625 19.5453 57.2853 21.1214 59.3333 21.1214C61.3781 21.1214 63.0417 22.7006 63.0417 24.6416V28.1618H25.9583V24.6416ZM81.5833 113.117H7.41667V21.119H19.1793C18.7676 22.2209 18.5417 23.4077 18.5417 24.6416V31.6821C18.5417 33.6262 20.202 35.2023 22.25 35.2023H66.75C68.798 35.2023 70.4583 33.6262 70.4583 31.6821V24.6416C70.4583 23.4077 70.2324 22.2232 69.8207 21.1214H81.5833V113.117ZM44.5 14.0809C42.452 14.0809 40.7917 15.6571 40.7917 17.6012C40.7917 19.5453 42.452 21.1214 44.5 21.1214C46.548 21.1214 48.2083 19.5453 48.2083 17.6012C48.2083 15.6571 46.548 14.0809 44.5 14.0809ZM33.375 49.5179C31.327 49.5179 29.6667 51.094 29.6667 53.0382C29.6667 54.9823 31.327 56.5584 33.375 56.5584H70.4583C72.5063 56.5584 74.1667 54.9823 74.1667 53.0382C74.1667 51.094 72.5063 49.5179 70.4583 49.5179H33.375ZM70.4583 63.5988H18.5417C16.4937 63.5988 14.8333 65.175 14.8333 67.1191C14.8333 69.0632 16.4937 70.6393 18.5417 70.6393H70.4583C72.5063 70.6393 74.1667 69.0632 74.1667 67.1191C74.1667 65.175 72.5063 63.5988 70.4583 63.5988ZM70.4583 77.6798H18.5417C16.4937 77.6798 14.8333 79.2559 14.8333 81.2C14.8333 83.1441 16.4937 84.7202 18.5417 84.7202H70.4583C72.5063 84.7202 74.1667 83.1441 74.1667 81.2C74.1667 79.2559 72.5063 77.6798 70.4583 77.6798ZM55.625 91.7607H18.5417C16.4937 91.7607 14.8333 93.3368 14.8333 95.2809C14.8333 97.225 16.4937 98.8012 18.5417 98.8012H55.625C57.673 98.8012 59.3333 97.225 59.3333 95.2809C59.3333 93.3368 57.673 91.7607 55.625 91.7607Z" fill="url(#paint0_linear)"/>
<defs>
<linearGradient id="paint0_linear" x1="44.5" y1="120.157" x2="44.5" y2="0" gradientUnits="userSpaceOnUse">
<stop stop-color="#FFC101"/>
<stop offset="1" stop-color="#FF2101"/>
</linearGradient>
</defs>
</svg>
